<svg xmlns="http://www.w3.org/2000/svg" width="300" height="300" fill="none" viewBox="0 0 300 300">
  <mask id="a" width="190" height="190" x="55" y="57" maskUnits="userSpaceOnUse" style="mask-type:alpha">
    <path fill="#D9D9D9" d="M67.5 96a8 8 0 0 1 8-8h54a8 8 0 0 1 8 8v54a8 8 0 0 1-8 8h-54a8 8 0 0 1-8-8V96Zm17 75a8 8 0 0 1 8-8h37a8 8 0 0 1 8 8v37a8 8 0 0 1-8 8h-37a8 8 0 0 1-8-8v-37Zm58-93.5a8 8 0 0 1 8-8h74a8 8 0 0 1 8 8v74a8 8 0 0 1-8 8h-74a8 8 0 0 1-8-8v-74Zm0 95a8 8 0 0 1 8-8h54a8 8 0 0 1 8 8v54a8 8 0 0 1-8 8h-54a8 8 0 0 1-8-8v-54Z"/>
  </mask>
  <g mask="url(#a)">
    <path fill="url(#b)" d="M0 0h200v200H0z" transform="translate(50 50)"/>
  </g>
  <defs>
    <linearGradient id="b" x1="200" x2="0" y1="100" y2="100" gradientUnits="userSpaceOnUse">
      <stop stop-color="#00F260"/>
      <stop offset="1" stop-color="#0575E6"/>
    </linearGradient>
  </defs>
</svg>
