<svg xmlns="http://www.w3.org/2000/svg" xmlns:xlink="http://www.w3.org/1999/xlink" xmlns:lucid="lucid" width="1321" height="830.14"><g transform="translate(-237.26499999999987 -199.5)" lucid:page-tab-id="0_0"><path d="M419.4 268a10.83 10.83 0 0 0 10.37 7.64h80a8 8 0 0 1 8 8v338a8 8 0 0 1-8 8h-244a8 8 0 0 1-8-8v-364a8 8 0 0 1 8-8h140a10.83 10.83 0 0 1 10.35 7.65zm-161.63 7.64h164" stroke="#333" fill="#fff"/><use xlink:href="#a" transform="matrix(1,0,0,1,265.7649999999999,249.64297852573884) translate(24.67499999999999 16.6)"/><path d="M297.76 317.64a8 8 0 0 1 8-8h164a8 8 0 0 1 8 8v104a8 8 0 0 1-8 8h-164a8 8 0 0 1-8-8z" stroke="#333" fill="#fff"/><path d="M467.76 319.64h-15v20h15z" stroke="#333" fill="#fff"/><path d="M457.76 322.98h-10v3.33h10zm0 10h-10v3.33h10z" stroke="#333" fill="#fff"/><use xlink:href="#b" transform="matrix(1,0,0,1,297.7649999999999,309.6429785257387) translate(27.229999999999997 63.15)"/><use xlink:href="#c" transform="matrix(1,0,0,1,297.7649999999999,309.6429785257387) translate(68.82999999999998 63.15)"/><use xlink:href="#d" transform="matrix(1,0,0,1,297.7649999999999,309.6429785257387) translate(105.82999999999998 63.15)"/><path d="M297.76 517.64a8 8 0 0 1 8-8h164a8 8 0 0 1 8 8v64a8 8 0 0 1-8 8h-164a8 8 0 0 1-8-8z" stroke="#333" fill="#fff"/><path d="M467.76 519.64h-15v20h15z" stroke="#333" fill="#fff"/><path d="M457.76 522.98h-10v3.33h10zm0 10h-10v3.33h10z" stroke="#333" fill="#fff"/><use xlink:href="#e" transform="matrix(1,0,0,1,297.7649999999999,509.6429785257387) translate(27.604999999999997 44.4)"/><use xlink:href="#f" transform="matrix(1,0,0,1,297.7649999999999,509.6429785257387) translate(53.605 44.4)"/><path d="M387.76 430.64v71.63" stroke="#333" fill="none"/><path d="M388.24 430.66h-.95v-.52h.94z" stroke="#333" stroke-width=".05" fill="#333"/><path d="M387.76 508.16l-7.63-12.9h15.27z" stroke="#333" fill="#333"/><path d="M577.76 523.64a17.08 17.08 0 0 1 6.15-13.12l18.92-15.76a22.1 22.1 0 0 1 14.14-5.12h912.8a8 8 0 0 1 8 8v212.8a22.1 22.1 0 0 1-5.12 14.15l-15.75 18.9a17.08 17.08 0 0 1-13.13 6.14h-918a8 8 0 0 1-8-8z" stroke="#333" fill="#fff"/><path d="M585.76 515.64a2.9 2.9 0 0 1-1.85-5.12l18.92-15.76a22.1 22.1 0 0 1 14.14-5.12h912.8a3.3 3.3 0 0 1 2.35 5.66l-14.68 14.7a19.3 19.3 0 0 1-13.65 5.64z" stroke="#333" fill="#e6e6e6"/><path d="M1511.77 523.64a19.3 19.3 0 0 1 5.65-13.65l14.7-14.7a3.3 3.3 0 0 1 5.65 2.34v212.8a22.1 22.1 0 0 1-5.13 14.15l-15.75 18.9a2.9 2.9 0 0 1-5.13-1.86z" stroke="#333" fill="#ccc"/><path d="M942.76 537.64a8 8 0 0 1 8-8h214a8 8 0 0 1 8 8v24a8 8 0 0 1-8 8h-214a8 8 0 0 1-8-8z" fill="none"/><use xlink:href="#g" transform="matrix(1,0,0,1,942.7649999999999,529.6429785257387) translate(40.625000000000085 23.599999999999994)"/><use xlink:href="#h" transform="matrix(1,0,0,1,942.7649999999999,529.6429785257387) translate(126.42499999999998 23.599999999999994)"/><path d="M823.1 537.64a8 8 0 0 1 8-8h77.13a8 8 0 0 1 8 8v44a8 8 0 0 1-8 8H831.1a8 8 0 0 1-8-8z" stroke="#333" fill="#fff"/><path d="M906.24 539.64h-15v20h15z" stroke="#333" fill="#fff"/><path d="M896.24 542.98h-10v3.33h10zm0 10h-10v3.33h10z" stroke="#333" fill="#fff"/><use xlink:href="#i" transform="matrix(1,0,0,1,823.0882763926717,529.6429785257387) translate(17.005000000000003 33.15)"/><path d="M637.76 674.83a8 8 0 0 1 8-8h144a8 8 0 0 1 8 8v44a8 8 0 0 1-8 8h-144a8 8 0 0 1-8-8z" stroke="#333" fill="#fff"/><path d="M787.76 676.83h-15v20h15z" stroke="#333" fill="#fff"/><path d="M777.76 680.16h-10v3.34h10zm0 10h-10v3.34h10z" stroke="#333" fill="#fff"/><use xlink:href="#j" transform="matrix(1,0,0,1,637.7649999999999,666.8304785257387) translate(6.079999999999993 33.15)"/><use xlink:href="#k" transform="matrix(1,0,0,1,637.7649999999999,666.8304785257387) translate(58.029999999999994 33.15)"/><path d="M830.9 674.83a8 8 0 0 1 8-8h164a8 8 0 0 1 8 8v44a8 8 0 0 1-8 8h-164a8 8 0 0 1-8-8z" stroke="#333" fill="#fff"/><path d="M1000.9 676.83h-15v20h15z" stroke="#333" fill="#fff"/><path d="M990.9 680.16h-10v3.34h10zm0 10h-10v3.34h10z" stroke="#333" fill="#fff"/><use xlink:href="#l" transform="matrix(1,0,0,1,830.911552785343,666.8304785257387) translate(21.055 33.15)"/><use xlink:href="#k" transform="matrix(1,0,0,1,830.911552785343,666.8304785257387) translate(63.055 33.15)"/><path d="M1044.06 674.83a8 8 0 0 1 8-8h164a8 8 0 0 1 8 8v44a8 8 0 0 1-8 8h-164a8 8 0 0 1-8-8z" stroke="#333" fill="#fff"/><path d="M1214.06 676.83h-15v20h15z" stroke="#333" fill="#fff"/><path d="M1204.06 680.16h-10v3.34h10zm0 10h-10v3.34h10z" stroke="#333" fill="#fff"/><use xlink:href="#m" transform="matrix(1,0,0,1,1044.0581055706862,666.8304785257387) translate(20.604999999999997 33.15)"/><use xlink:href="#k" transform="matrix(1,0,0,1,1044.0581055706862,666.8304785257387) translate(63.505 33.15)"/><path d="M1257.2 672.02a8 8 0 0 1 8-8h151.5a8 8 0 0 1 8 8v46.8a8 8 0 0 1-8 8h-151.5a8 8 0 0 1-8-8z" stroke="#333" fill="#fff"/><path d="M1414.7 674.02h-15v20h15z" stroke="#333" fill="#fff"/><path d="M1404.7 677.35h-10v3.33h10zm0 10h-10v3.33h10z" stroke="#333" fill="#fff"/><use xlink:href="#n" transform="matrix(1,0,0,1,1257.2046583560293,664.0179785257387) translate(12.12999999999999 26.2125)"/><use xlink:href="#k" transform="matrix(1,0,0,1,1257.2046583560293,664.0179785257387) translate(40.05499999999999 47.8125)"/><path d="M835.52 590.48l-78.88 71.24" stroke="#333" fill="none"/><path d="M835.83 590.84l-.63-.7h1.4z" stroke="#333" stroke-width=".05" fill="#333"/><path d="M752.26 665.67l4.47-14.32 10.23 11.33z" stroke="#333" fill="#333"/><path d="M881.23 590.6l25.88 69.3" stroke="#333" fill="none"/><path d="M881.68 590.46l-.9.33-.23-.66h1z" stroke="#333" stroke-width=".05" fill="#333"/><path d="M909.17 665.4L897.5 656l14.3-5.36z" stroke="#333" fill="#333"/><path d="M916.85 584.13l152.33 79.03" stroke="#333" fill="none"/><path d="M917.08 583.7l-.43.86-.37-.2.04-.1.2-.84z" stroke="#333" stroke-width=".05" fill="#333"/><path d="M1074.4 665.88l-14.97.83 7.03-13.55z" stroke="#333" fill="#333"/><path d="M917.2 573.34l332.96 95.93" stroke="#333" fill="none"/><path d="M917.36 572.9l-.26.9-.37-.1v-1z" stroke="#333" stroke-width=".05" fill="#333"/><path d="M1255.83 670.9l-14.52 3.76 4.23-14.67z" stroke="#333" fill="#333"/><path d="M1355.87 989.14c0 11.05-133.47 20-298.1 20-164.64 0-298.1-8.95-298.1-20v-160c0-11.04 133.46-20 298.1-20 164.63 0 298.1 8.96 298.1 20z" stroke="#333" fill="#fff"/><path d="M1355.87 829.14c0 11.05-133.47 20-298.1 20-164.64 0-298.1-8.95-298.1-20" stroke="#333" fill="none"/><use xlink:href="#o" transform="matrix(1,0,0,1,764.6630722355737,854.1430407379262) translate(293.5 80.025)"/><path d="M942.76 857.14a8 8 0 0 1 8-8h214a8 8 0 0 1 8 8v24a8 8 0 0 1-8 8h-214a8 8 0 0 1-8-8z" fill="none"/><use xlink:href="#p" transform="matrix(1,0,0,1,942.7649999999999,849.1430407379262) translate(75.07500000000005 23.599999999999994)"/><path d="M972.76 915.27a8 8 0 0 1 8-8h154a8 8 0 0 1 8 8v44a8 8 0 0 1-8 8h-154a8 8 0 0 1-8-8z" stroke="#333" fill="#fff"/><path d="M1132.77 917.27h-15v20h15z" stroke="#333" fill="#fff"/><path d="M1122.77 920.6h-10v3.33h10zm0 10h-10v3.33h10z" stroke="#333" fill="#fff"/><use xlink:href="#q" transform="matrix(1,0,0,1,972.7649999999999,907.2680407379262) translate(46.555 33.15)"/><path d="M772.76 917.14a8 8 0 0 1 8-8h154a8 8 0 0 1 8 8v44a8 8 0 0 1-8 8h-154a8 8 0 0 1-8-8z" stroke="#333" fill="#fff"/><path d="M932.76 919.14h-15v20h15z" stroke="#333" fill="#fff"/><path d="M922.76 922.48h-10v3.33h10zm0 10h-10v3.33h10z" stroke="#333" fill="#fff"/><use xlink:href="#r" transform="matrix(1,0,0,1,772.7649999999999,909.1430407379262) translate(46.529999999999994 33.15)"/><path d="M1172.77 915.27a8 8 0 0 1 8-8h154a8 8 0 0 1 8 8v45.87a8 8 0 0 1-8 8h-154a8 8 0 0 1-8-8z" stroke="#333" fill="#fff"/><path d="M1332.77 917.27h-15v20h15z" stroke="#333" fill="#fff"/><path d="M1322.77 920.6h-10v3.33h10zm0 10h-10v3.33h10z" stroke="#333" fill="#fff"/><use xlink:href="#s" transform="matrix(1,0,0,1,1172.7649999999999,907.2680407379262) translate(12.62999999999999 33.775)"/><path d="M1329.86 727.8l-59.1 172.47" stroke="#333" fill="none"/><path d="M1330.3 727.97l-.9-.3.12-.34h1z" stroke="#333" stroke-width=".05" fill="#333"/><path d="M1268.86 905.84l-3.04-14.7 14.44 4.96z" stroke="#333" fill="#333"/><path d="M1124.23 727.8l-54.7 172.42" stroke="#333" fill="none"/><path d="M1124.68 727.96l-.9-.28.1-.35h1z" stroke="#333" stroke-width=".05" fill="#333"/><path d="M1067.74 905.83l-3.37-14.6 14.55 4.6z" stroke="#333" fill="#333"/><path d="M938.52 727.76l98.5 173.03" stroke="#333" fill="none"/><path d="M938.94 727.54l-.83.47-.38-.67h1.1z" stroke="#333" stroke-width=".05" fill="#333"/><path d="M1039.92 905.9l-13.02-7.43 13.27-7.55z" stroke="#333" fill="#333"/><path d="M735.64 727.76L836.7 902.7" stroke="#333" fill="none"/><path d="M736.05 727.54l-.82.47-.4-.67h1.1z" stroke="#333" stroke-width=".05" fill="#333"/><path d="M839.65 907.8l-13.07-7.37 13.22-7.64z" stroke="#333" fill="#333"/><path d="M478.73 405.5L816.2 538.57" stroke="#333" fill="none"/><path d="M478.92 405.07l-.35.88-.3-.12v-1.02z" stroke="#333" stroke-width=".05" fill="#333"/><path d="M821.67 540.72l-14.8 2.37 5.6-14.22z" stroke="#333" fill="#333"/><path d="M1081.06 251a17.08 17.08 0 0 1 6.14-13.12l15.3-12.76a22.1 22.1 0 0 1 14.16-5.12h207.9a8 8 0 0 1 8 8v186.4a22.1 22.1 0 0 1-5.13 14.15l-12.75 15.3a17.08 17.08 0 0 1-13.12 6.15h-212.5a8 8 0 0 1-8-8z" stroke="#333" fill="#fff"/><path d="M1089.06 243a2.9 2.9 0 0 1-1.86-5.12l15.3-12.76a22.1 22.1 0 0 1 14.16-5.12h207.9a3.3 3.3 0 0 1 2.34 5.66l-11.7 11.68a19.3 19.3 0 0 1-13.64 5.66z" stroke="#333" fill="#e6e6e6"/><path d="M1309.56 251a19.3 19.3 0 0 1 5.65-13.66l11.7-11.68a3.3 3.3 0 0 1 5.66 2.34v186.4a22.1 22.1 0 0 1-5.13 14.15l-12.75 15.3a2.9 2.9 0 0 1-5.12-1.85z" stroke="#333" fill="#ccc"/><path d="M1082.9 248a8 8 0 0 1 8-8h214a8 8 0 0 1 8 8v24a8 8 0 0 1-8 8h-214a8 8 0 0 1-8-8z" fill="none"/><use xlink:href="#g" transform="matrix(1,0,0,1,1082.9105057271065,240) translate(39.6750000000001 23.599999999999994)"/><use xlink:href="#t" transform="matrix(1,0,0,1,1082.9105057271065,240) translate(125.475 23.599999999999994)"/><path d="M1107.9 388a8 8 0 0 1 8-8h164a8 8 0 0 1 8 8v44a8 8 0 0 1-8 8h-164a8 8 0 0 1-8-8z" stroke="#333" fill="#fff"/><path d="M1277.9 390h-15v20h15z" stroke="#333" fill="#fff"/><path d="M1267.9 393.33h-10v3.34h10zm0 10h-10v3.34h10z" stroke="#333" fill="#fff"/><use xlink:href="#u" transform="matrix(1,0,0,1,1107.9105057271065,380) translate(35.60499999999999 33.15)"/><path d="M1107.9 288a8 8 0 0 1 8-8h164a8 8 0 0 1 8 8v44a8 8 0 0 1-8 8h-164a8 8 0 0 1-8-8z" stroke="#333" fill="#fff"/><path d="M1277.9 290h-15v20h15z" stroke="#333" fill="#fff"/><path d="M1267.9 293.33h-10v3.34h10zm0 10h-10v3.34h10z" stroke="#333" fill="#fff"/><g><use xlink:href="#v" transform="matrix(1,0,0,1,1107.9105057271065,280) translate(28.57999999999999 33.15)"/><use xlink:href="#w" transform="matrix(1,0,0,1,1107.9105057271065,280) translate(60.57999999999999 33.15)"/></g><path d="M1197.9 341v31.63" stroke="#333" fill="none"/><path d="M1198.4 341h-.96v-.5h.95z" stroke="#333" stroke-width=".05" fill="#333"/><path d="M1197.9 378.52l-7.63-12.9h15.28z" stroke="#333" fill="#333"/><path d="M1157.4 340.8L915.1 525.1" stroke="#333" fill="none"/><path d="M1157.7 341.2l-.54-.7h1.43z" stroke="#333" stroke-width=".05" fill="#333"/><path d="M910.4 528.66l5.65-13.9 9.25 12.16z" stroke="#333" fill="#333"/><defs><path d="M76-208v77h127v40H76V0H24v-248h183v40H76" id="x"/><path d="M135-150c-39-12-60 13-60 57V0H25l-1-190h47c2 13-1 29 3 40 6-28 27-53 61-41v41" id="y"/><path d="M110-194c64 0 96 36 96 99 0 64-35 99-97 99-61 0-95-36-95-99 0-62 34-99 96-99zm-1 164c35 0 45-28 45-65 0-40-10-65-43-65-34 0-45 26-45 65 0 36 10 65 43 65" id="z"/><path d="M135-194c87-1 58 113 63 194h-50c-7-57 23-157-34-157-59 0-34 97-39 157H25l-1-190h47c2 12-1 28 3 38 12-26 28-41 61-42" id="A"/><path d="M115-3C79 11 28 4 28-45v-112H4v-33h27l15-45h31v45h36v33H77v99c-1 23 16 31 38 25v30" id="B"/><path d="M14-72v-43h91v43H14" id="C"/><path d="M185-48c-13 30-37 53-82 52C43 2 14-33 14-96s30-98 90-98c62 0 83 45 84 108H66c0 31 8 55 39 56 18 0 30-7 34-22zm-45-69c5-46-57-63-70-21-2 6-4 13-4 21h74" id="D"/><path d="M88-194c31-1 46 15 58 34l-1-101h50l1 261h-48c-2-10 0-23-3-31C134-8 116 4 84 4 32 4 16-41 15-95c0-56 19-97 73-99zm17 164c33 0 40-30 41-66 1-37-9-64-41-64s-38 30-39 65c0 43 13 65 39 65" id="E"/><g id="a"><use transform="matrix(0.05,0,0,0.05,0,0)" xlink:href="#x"/><use transform="matrix(0.05,0,0,0.05,10.950000000000001,0)" xlink:href="#y"/><use transform="matrix(0.05,0,0,0.05,17.950000000000003,0)" xlink:href="#z"/><use transform="matrix(0.05,0,0,0.05,28.900000000000006,0)" xlink:href="#A"/><use transform="matrix(0.05,0,0,0.05,39.85000000000001,0)" xlink:href="#B"/><use transform="matrix(0.05,0,0,0.05,45.80000000000001,0)" xlink:href="#C"/><use transform="matrix(0.05,0,0,0.05,51.750000000000014,0)" xlink:href="#D"/><use transform="matrix(0.05,0,0,0.05,61.750000000000014,0)" xlink:href="#A"/><use transform="matrix(0.05,0,0,0.05,72.70000000000002,0)" xlink:href="#E"/></g><path d="M266 0h-40l-56-210L115 0H75L2-248h35L96-30l15-64 43-154h32l59 218 59-218h35" id="F"/><path d="M100-194c63 0 86 42 84 106H49c0 40 14 67 53 68 26 1 43-12 49-29l28 8c-11 28-37 45-77 45C44 4 14-33 15-96c1-61 26-98 85-98zm52 81c6-60-76-77-97-28-3 7-6 17-6 28h103" id="G"/><path d="M115-194c53 0 69 39 70 98 0 66-23 100-70 100C84 3 66-7 56-30L54 0H23l1-261h32v101c10-23 28-34 59-34zm-8 174c40 0 45-34 45-75 0-40-5-75-45-74-42 0-51 32-51 76 0 43 10 73 51 73" id="H"/><g id="b"><use transform="matrix(0.05,0,0,0.05,0,0)" xlink:href="#F"/><use transform="matrix(0.05,0,0,0.05,16.599999999999998,0)" xlink:href="#G"/><use transform="matrix(0.05,0,0,0.05,26.599999999999994,0)" xlink:href="#H"/></g><path d="M205 0l-28-72H64L36 0H1l101-248h38L239 0h-34zm-38-99l-47-123c-12 45-31 82-46 123h93" id="I"/><path d="M115-194c55 1 70 41 70 98S169 2 115 4C84 4 66-9 55-30l1 105H24l-1-265h31l2 30c10-21 28-34 59-34zm-8 174c40 0 45-34 45-75s-6-73-45-74c-42 0-51 32-51 76 0 43 10 73 51 73" id="J"/><g id="c"><use transform="matrix(0.05,0,0,0.05,0,0)" xlink:href="#I"/><use transform="matrix(0.05,0,0,0.05,12,0)" xlink:href="#J"/><use transform="matrix(0.05,0,0,0.05,22,0)" xlink:href="#J"/></g><path d="M233-177c-1 41-23 64-60 70L243 0h-38l-65-103H63V0H30v-248c88 3 205-21 203 71zM63-129c60-2 137 13 137-47 0-61-80-42-137-45v92" id="K"/><path d="M141-36C126-15 110 5 73 4 37 3 15-17 15-53c-1-64 63-63 125-63 3-35-9-54-41-54-24 1-41 7-42 31l-33-3c5-37 33-52 76-52 45 0 72 20 72 64v82c-1 20 7 32 28 27v20c-31 9-61-2-59-35zM48-53c0 20 12 33 32 33 41-3 63-29 60-74-43 2-92-5-92 41" id="L"/><path d="M96-169c-40 0-48 33-48 73s9 75 48 75c24 0 41-14 43-38l32 2c-6 37-31 61-74 61-59 0-76-41-82-99-10-93 101-131 147-64 4 7 5 14 7 22l-32 3c-4-21-16-35-41-35" id="M"/><path d="M59-47c-2 24 18 29 38 22v24C64 9 27 4 27-40v-127H5v-23h24l9-43h21v43h35v23H59v120" id="N"/><g id="d"><use transform="matrix(0.05,0,0,0.05,0,0)" xlink:href="#K"/><use transform="matrix(0.05,0,0,0.05,12.950000000000001,0)" xlink:href="#G"/><use transform="matrix(0.05,0,0,0.05,22.950000000000003,0)" xlink:href="#L"/><use transform="matrix(0.05,0,0,0.05,32.95,0)" xlink:href="#M"/><use transform="matrix(0.05,0,0,0.05,41.95,0)" xlink:href="#N"/></g><path d="M153-248C145-148 188 4 80 4 36 3 13-21 6-62l32-5c4 25 16 42 43 43 27 0 39-20 39-49v-147H72v-28h81" id="O"/><path d="M185-189c-5-48-123-54-124 2 14 75 158 14 163 119 3 78-121 87-175 55-17-10-28-26-33-46l33-7c5 56 141 63 141-1 0-78-155-14-162-118-5-82 145-84 179-34 5 7 8 16 11 25" id="P"/><g id="e"><use transform="matrix(0.05,0,0,0.05,0,0)" xlink:href="#O"/><use transform="matrix(0.05,0,0,0.05,9,0)" xlink:href="#P"/></g><path d="M30 0v-248h33v221h125V0H30" id="Q"/><path d="M24-231v-30h32v30H24zM24 0v-190h32V0H24" id="R"/><path d="M114-163C36-179 61-72 57 0H25l-1-190h30c1 12-1 29 2 39 6-27 23-49 58-41v29" id="S"/><path d="M135-143c-3-34-86-38-87 0 15 53 115 12 119 90S17 21 10-45l28-5c4 36 97 45 98 0-10-56-113-15-118-90-4-57 82-63 122-42 12 7 21 19 24 35" id="T"/><g id="f"><use transform="matrix(0.05,0,0,0.05,0,0)" xlink:href="#Q"/><use transform="matrix(0.05,0,0,0.05,10,0)" xlink:href="#R"/><use transform="matrix(0.05,0,0,0.05,13.949999999999998,0)" xlink:href="#H"/><use transform="matrix(0.05,0,0,0.05,23.95,0)" xlink:href="#S"/><use transform="matrix(0.05,0,0,0.05,29.899999999999995,0)" xlink:href="#L"/><use transform="matrix(0.05,0,0,0.05,39.9,0)" xlink:href="#S"/><use transform="matrix(0.05,0,0,0.05,45.85,0)" xlink:href="#R"/><use transform="matrix(0.05,0,0,0.05,49.800000000000004,0)" xlink:href="#G"/><use transform="matrix(0.05,0,0,0.05,59.800000000000004,0)" xlink:href="#T"/></g><path d="M182-130c37 4 62 22 62 59C244 23 116-4 24 0v-248c84 5 203-23 205 63 0 31-19 50-47 55zM76-148c40-3 101 13 101-30 0-44-60-28-101-31v61zm0 110c48-3 116 14 116-37 0-48-69-32-116-35v72" id="U"/><path d="M133-34C117-15 103 5 69 4 32 3 11-16 11-54c-1-60 55-63 116-61 1-26-3-47-28-47-18 1-26 9-28 27l-52-2c7-38 36-58 82-57s74 22 75 68l1 82c-1 14 12 18 25 15v27c-30 8-71 5-69-32zm-48 3c29 0 43-24 42-57-32 0-66-3-65 30 0 17 8 27 23 27" id="V"/><path d="M190-63c-7 42-38 67-86 67-59 0-84-38-90-98-12-110 154-137 174-36l-49 2c-2-19-15-32-35-32-30 0-35 28-38 64-6 74 65 87 74 30" id="W"/><path d="M147 0L96-86 75-71V0H25v-261h50v150l67-79h53l-66 74L201 0h-54" id="X"/><g id="g"><use transform="matrix(0.04999999999999994,0,0,0.04999999999999994,0,0)" xlink:href="#U"/><use transform="matrix(0.04999999999999994,0,0,0.04999999999999994,12.949999999999985,0)" xlink:href="#V"/><use transform="matrix(0.04999999999999994,0,0,0.04999999999999994,22.949999999999974,0)" xlink:href="#W"/><use transform="matrix(0.04999999999999994,0,0,0.04999999999999994,32.94999999999996,0)" xlink:href="#X"/><use transform="matrix(0.04999999999999994,0,0,0.04999999999999994,42.949999999999946,0)" xlink:href="#C"/><use transform="matrix(0.04999999999999994,0,0,0.04999999999999994,48.89999999999994,0)" xlink:href="#D"/><use transform="matrix(0.04999999999999994,0,0,0.04999999999999994,58.89999999999993,0)" xlink:href="#A"/><use transform="matrix(0.04999999999999994,0,0,0.04999999999999994,69.84999999999991,0)" xlink:href="#E"/></g><path d="M24 0v-248h52v208h133V0H24" id="Y"/><path d="M128 0H69L1-190h53L99-40l48-150h52" id="Z"/><path d="M25 0v-261h50V0H25" id="aa"/><g id="h"><use transform="matrix(0.04999999999999994,0,0,0.04999999999999994,0,0)" xlink:href="#Y"/><use transform="matrix(0.04999999999999994,0,0,0.04999999999999994,10.949999999999987,0)" xlink:href="#V"/><use transform="matrix(0.04999999999999994,0,0,0.04999999999999994,20.949999999999974,0)" xlink:href="#y"/><use transform="matrix(0.04999999999999994,0,0,0.04999999999999994,27.949999999999967,0)" xlink:href="#V"/><use transform="matrix(0.04999999999999994,0,0,0.04999999999999994,37.94999999999995,0)" xlink:href="#Z"/><use transform="matrix(0.04999999999999994,0,0,0.04999999999999994,47.94999999999994,0)" xlink:href="#D"/><use transform="matrix(0.04999999999999994,0,0,0.04999999999999994,57.94999999999992,0)" xlink:href="#aa"/></g><path d="M30-248c87 1 191-15 191 75 0 78-77 80-158 76V0H30v-248zm33 125c57 0 124 11 124-50 0-59-68-47-124-48v98" id="ab"/><path d="M33 0v-248h34V0H33" id="ac"/><g id="i"><use transform="matrix(0.05,0,0,0.05,0,0)" xlink:href="#I"/><use transform="matrix(0.05,0,0,0.05,12,0)" xlink:href="#ab"/><use transform="matrix(0.05,0,0,0.05,24,0)" xlink:href="#ac"/></g><path d="M190 0L58-211 59 0H30v-248h39L202-35l-2-213h31V0h-41" id="ad"/><path d="M100-194c62-1 85 37 85 99 1 63-27 99-86 99S16-35 15-95c0-66 28-99 85-99zM99-20c44 1 53-31 53-75 0-43-8-75-51-75s-53 32-53 75 10 74 51 75" id="ae"/><g id="j"><use transform="matrix(0.05,0,0,0.05,0,0)" xlink:href="#ad"/><use transform="matrix(0.05,0,0,0.05,12.950000000000001,0)" xlink:href="#ae"/><use transform="matrix(0.05,0,0,0.05,22.950000000000003,0)" xlink:href="#N"/><use transform="matrix(0.05,0,0,0.05,27.950000000000003,0)" xlink:href="#G"/><use transform="matrix(0.05,0,0,0.05,37.95,0)" xlink:href="#T"/></g><path d="M108 0H70L1-190h34L89-25l56-165h34" id="af"/><g id="k"><use transform="matrix(0.05,0,0,0.05,0,0)" xlink:href="#T"/><use transform="matrix(0.05,0,0,0.05,9,0)" xlink:href="#G"/><use transform="matrix(0.05,0,0,0.05,19,0)" xlink:href="#S"/><use transform="matrix(0.05,0,0,0.05,24.95,0)" xlink:href="#af"/><use transform="matrix(0.05,0,0,0.05,33.95,0)" xlink:href="#R"/><use transform="matrix(0.05,0,0,0.05,37.900000000000006,0)" xlink:href="#M"/><use transform="matrix(0.05,0,0,0.05,46.900000000000006,0)" xlink:href="#G"/><use transform="matrix(0.05,0,0,0.05,56.900000000000006,0)" xlink:href="#T"/></g><path d="M84 4C-5 8 30-112 23-190h32v120c0 31 7 50 39 49 72-2 45-101 50-169h31l1 190h-30c-1-10 1-25-2-33-11 22-28 36-60 37" id="ag"/><path d="M106-169C34-169 62-67 57 0H25v-261h32l-1 103c12-21 28-36 61-36 89 0 53 116 60 194h-32v-121c2-32-8-49-39-48" id="ah"/><g id="l"><use transform="matrix(0.05,0,0,0.05,0,0)" xlink:href="#I"/><use transform="matrix(0.05,0,0,0.05,12,0)" xlink:href="#ag"/><use transform="matrix(0.05,0,0,0.05,22,0)" xlink:href="#N"/><use transform="matrix(0.05,0,0,0.05,27,0)" xlink:href="#ah"/></g><path d="M232-93c-1 65-40 97-104 97C67 4 28-28 28-90v-158h33c8 89-33 224 67 224 102 0 64-133 71-224h33v155" id="ai"/><g id="m"><use transform="matrix(0.05,0,0,0.05,0,0)" xlink:href="#ai"/><use transform="matrix(0.05,0,0,0.05,12.950000000000001,0)" xlink:href="#T"/><use transform="matrix(0.05,0,0,0.05,21.950000000000003,0)" xlink:href="#G"/><use transform="matrix(0.05,0,0,0.05,31.950000000000003,0)" xlink:href="#S"/></g><path d="M85-194c31 0 48 13 60 33l-1-100h32l1 261h-30c-2-10 0-23-3-31C134-8 116 4 85 4 32 4 16-35 15-94c0-66 23-100 70-100zm9 24c-40 0-46 34-46 75 0 40 6 74 45 74 42 0 51-32 51-76 0-42-9-74-50-73" id="aj"/><path d="M210-169c-67 3-38 105-44 169h-31v-121c0-29-5-50-35-48C34-165 62-65 56 0H25l-1-190h30c1 10-1 24 2 32 10-44 99-50 107 0 11-21 27-35 58-36 85-2 47 119 55 194h-31v-121c0-29-5-49-35-48" id="ak"/><path d="M117-194c89-4 53 116 60 194h-32v-121c0-31-8-49-39-48C34-167 62-67 57 0H25l-1-190h30c1 10-1 24 2 32 11-22 29-35 61-36" id="al"/><g id="n"><use transform="matrix(0.05,0,0,0.05,0,0)" xlink:href="#I"/><use transform="matrix(0.05,0,0,0.05,12,0)" xlink:href="#aj"/><use transform="matrix(0.05,0,0,0.05,22,0)" xlink:href="#ak"/><use transform="matrix(0.05,0,0,0.05,36.95,0)" xlink:href="#R"/><use transform="matrix(0.05,0,0,0.05,40.900000000000006,0)" xlink:href="#al"/><use transform="matrix(0.05,0,0,0.05,50.900000000000006,0)" xlink:href="#R"/><use transform="matrix(0.05,0,0,0.05,54.85,0)" xlink:href="#T"/><use transform="matrix(0.05,0,0,0.05,63.85,0)" xlink:href="#N"/><use transform="matrix(0.05,0,0,0.05,68.85000000000001,0)" xlink:href="#S"/><use transform="matrix(0.05,0,0,0.05,74.80000000000001,0)" xlink:href="#L"/><use transform="matrix(0.05,0,0,0.05,84.80000000000001,0)" xlink:href="#N"/><use transform="matrix(0.05,0,0,0.05,89.80000000000001,0)" xlink:href="#R"/><use transform="matrix(0.05,0,0,0.05,93.75000000000001,0)" xlink:href="#ae"/><use transform="matrix(0.05,0,0,0.05,103.75,0)" xlink:href="#al"/></g><path d="M24-248c120-7 223 5 221 122C244-46 201 0 124 0H24v-248zM76-40c74 7 117-18 117-86 0-67-45-88-117-82v168" id="am"/><path d="M135-194c52 0 70 43 70 98 0 56-19 99-73 100-30 1-46-15-58-35L72 0H24l1-261h50v104c11-23 29-37 60-37zM114-30c31 0 40-27 40-66 0-37-7-63-39-63s-41 28-41 65c0 36 8 64 40 64" id="an"/><path d="M137-138c1-29-70-34-71-4 15 46 118 7 119 86 1 83-164 76-172 9l43-7c4 19 20 25 44 25 33 8 57-30 24-41C81-84 22-81 20-136c-2-80 154-74 161-7" id="ao"/><g id="p"><use transform="matrix(0.04999999999999994,0,0,0.04999999999999994,0,0)" xlink:href="#am"/><use transform="matrix(0.04999999999999994,0,0,0.04999999999999994,12.949999999999985,0)" xlink:href="#V"/><use transform="matrix(0.04999999999999994,0,0,0.04999999999999994,22.949999999999974,0)" xlink:href="#B"/><use transform="matrix(0.04999999999999994,0,0,0.04999999999999994,28.899999999999967,0)" xlink:href="#V"/><use transform="matrix(0.04999999999999994,0,0,0.04999999999999994,38.899999999999956,0)" xlink:href="#an"/><use transform="matrix(0.04999999999999994,0,0,0.04999999999999994,49.849999999999945,0)" xlink:href="#V"/><use transform="matrix(0.04999999999999994,0,0,0.04999999999999994,59.84999999999993,0)" xlink:href="#ao"/><use transform="matrix(0.04999999999999994,0,0,0.04999999999999994,69.84999999999992,0)" xlink:href="#D"/></g><g id="q"><use transform="matrix(0.05,0,0,0.05,0,0)" xlink:href="#ai"/><use transform="matrix(0.05,0,0,0.05,12.950000000000001,0)" xlink:href="#T"/><use transform="matrix(0.05,0,0,0.05,21.950000000000003,0)" xlink:href="#G"/><use transform="matrix(0.05,0,0,0.05,31.950000000000003,0)" xlink:href="#S"/><use transform="matrix(0.05,0,0,0.05,37.900000000000006,0)" xlink:href="#T"/></g><g id="r"><use transform="matrix(0.05,0,0,0.05,0,0)" xlink:href="#ad"/><use transform="matrix(0.05,0,0,0.05,12.950000000000001,0)" xlink:href="#ae"/><use transform="matrix(0.05,0,0,0.05,22.950000000000003,0)" xlink:href="#N"/><use transform="matrix(0.05,0,0,0.05,27.950000000000003,0)" xlink:href="#G"/><use transform="matrix(0.05,0,0,0.05,37.95,0)" xlink:href="#T"/></g><g id="s"><use transform="matrix(0.05,0,0,0.05,0,0)" xlink:href="#I"/><use transform="matrix(0.05,0,0,0.05,12,0)" xlink:href="#aj"/><use transform="matrix(0.05,0,0,0.05,22,0)" xlink:href="#ak"/><use transform="matrix(0.05,0,0,0.05,36.95,0)" xlink:href="#R"/><use transform="matrix(0.05,0,0,0.05,40.900000000000006,0)" xlink:href="#al"/><use transform="matrix(0.05,0,0,0.05,50.900000000000006,0)" xlink:href="#R"/><use transform="matrix(0.05,0,0,0.05,54.85,0)" xlink:href="#T"/><use transform="matrix(0.05,0,0,0.05,63.85,0)" xlink:href="#N"/><use transform="matrix(0.05,0,0,0.05,68.85000000000001,0)" xlink:href="#S"/><use transform="matrix(0.05,0,0,0.05,74.80000000000001,0)" xlink:href="#L"/><use transform="matrix(0.05,0,0,0.05,84.80000000000001,0)" xlink:href="#N"/><use transform="matrix(0.05,0,0,0.05,89.80000000000001,0)" xlink:href="#ae"/><use transform="matrix(0.05,0,0,0.05,99.80000000000001,0)" xlink:href="#S"/><use transform="matrix(0.05,0,0,0.05,105.75,0)" xlink:href="#T"/></g><path d="M175 0L67-191c6 58 2 128 3 191H24v-248h59L193-55c-6-58-2-129-3-193h46V0h-61" id="ap"/><path d="M24 0v-54h51V0H24" id="aq"/><path d="M25-224v-37h50v37H25zM75 22c2 45-34 59-81 51V38c22 5 31-5 31-27v-201h50V22" id="ar"/><g id="t"><use transform="matrix(0.04999999999999994,0,0,0.04999999999999994,0,0)" xlink:href="#ap"/><use transform="matrix(0.04999999999999994,0,0,0.04999999999999994,12.949999999999985,0)" xlink:href="#z"/><use transform="matrix(0.04999999999999994,0,0,0.04999999999999994,23.89999999999997,0)" xlink:href="#E"/><use transform="matrix(0.04999999999999994,0,0,0.04999999999999994,34.84999999999996,0)" xlink:href="#D"/><use transform="matrix(0.04999999999999994,0,0,0.04999999999999994,44.849999999999945,0)" xlink:href="#aq"/><use transform="matrix(0.04999999999999994,0,0,0.04999999999999994,49.84999999999994,0)" xlink:href="#ar"/><use transform="matrix(0.04999999999999994,0,0,0.04999999999999994,54.84999999999994,0)" xlink:href="#ao"/></g><path d="M30-248c118-7 216 8 213 122C240-48 200 0 122 0H30v-248zM63-27c89 8 146-16 146-99s-60-101-146-95v194" id="as"/><path d="M33 0v-38h34V0H33" id="at"/><path d="M24-231v-30h32v30H24zM-9 49c24 4 33-6 33-30v-209h32V24c2 40-23 58-65 49V49" id="au"/><g id="u"><use transform="matrix(0.05,0,0,0.05,0,0)" xlink:href="#as"/><use transform="matrix(0.05,0,0,0.05,12.950000000000001,0)" xlink:href="#R"/><use transform="matrix(0.05,0,0,0.05,16.900000000000002,0)" xlink:href="#T"/><use transform="matrix(0.05,0,0,0.05,25.900000000000002,0)" xlink:href="#M"/><use transform="matrix(0.05,0,0,0.05,34.900000000000006,0)" xlink:href="#ae"/><use transform="matrix(0.05,0,0,0.05,44.900000000000006,0)" xlink:href="#S"/><use transform="matrix(0.05,0,0,0.05,50.85000000000001,0)" xlink:href="#aj"/><use transform="matrix(0.05,0,0,0.05,60.85,0)" xlink:href="#at"/><use transform="matrix(0.05,0,0,0.05,65.85000000000001,0)" xlink:href="#au"/><use transform="matrix(0.05,0,0,0.05,69.80000000000001,0)" xlink:href="#T"/></g><path d="M160-131c35 5 61 23 61 61C221 17 115-2 30 0v-248c76 3 177-17 177 60 0 33-19 50-47 57zm-97-11c50-1 110 9 110-42 0-47-63-36-110-37v79zm0 115c55-2 124 14 124-45 0-56-70-42-124-44v89" id="av"/><g id="v"><use transform="matrix(0.05,0,0,0.05,0,0)" xlink:href="#av"/><use transform="matrix(0.05,0,0,0.05,12,0)" xlink:href="#ae"/><use transform="matrix(0.05,0,0,0.05,22,0)" xlink:href="#N"/></g><g id="w"><use transform="matrix(0.05,0,0,0.05,0,0)" xlink:href="#as"/><use transform="matrix(0.05,0,0,0.05,12.950000000000001,0)" xlink:href="#R"/><use transform="matrix(0.05,0,0,0.05,16.900000000000002,0)" xlink:href="#T"/><use transform="matrix(0.05,0,0,0.05,25.900000000000002,0)" xlink:href="#M"/><use transform="matrix(0.05,0,0,0.05,34.900000000000006,0)" xlink:href="#ae"/><use transform="matrix(0.05,0,0,0.05,44.900000000000006,0)" xlink:href="#S"/><use transform="matrix(0.05,0,0,0.05,50.85000000000001,0)" xlink:href="#aj"/></g></defs></g></svg>